<svg xmlns="http://www.w3.org/2000/svg" viewBox="0 0 3000 3000"><defs><style>.cls-1{fill:#fff;}.cls-2{fill:none;stroke:#010101;stroke-linecap:round;stroke-miterlimit:10;stroke-width:12px;}</style></defs><title>krxln</title><g id="Layer_4" data-name="Layer 4"><rect class="cls-1" width="3000" height="3000"/></g><g id="Layer_1" data-name="Layer 1"><path d="M1162.8774,2142.9287h16.834v226.7h111.1177v14.4922H1162.8774Z"/><path d="M1348.8037,2142.9287h16.834v241.1924h-16.834Z"/><path d="M1417.6821,2142.9287h17.8584l44.6524,140.8379c9.2231,29.5361,15.5918,51.752,25.4741,80.9951h1.4639c9.8818-29.2431,16.2871-51.459,25.4736-80.9951l44.58-140.8379h16.9795l-78.836,241.1924h-18.1513Z"/><path d="M1645.9951,2142.9287h131.9776v14.4922H1662.8291v91.3545h96.6973v14.4922h-96.6973v106.3613h118.8037v14.4922H1645.9951Z"/><path d="M1366.4863,1885.8076h8.29l14.2417,66.8037q3.8957,18.4733,7.8086,36.9453h.688c2.6831-12.3154,5.6762-24.6474,8.6689-36.9453l17.7847-66.8037h8.0488l17.7847,66.8037c2.9931,12.2637,5.9858,24.6133,8.9785,36.9453h.688c2.5971-12.332,4.9018-24.664,7.499-36.9453l14.2417-66.8037h7.7734l-25.3867,113.3457h-8.7021l-20.6743-77.8125c-2.03-8.91-4.025-16.6494-5.9859-25.5244h-.688c-1.978,8.875-4.2656,16.6143-6.2949,25.5244l-20.3306,77.8125h-8.6333Z"/><path d="M1510.8262,1885.8076h62.0224v6.81h-54.1113v42.9316H1564.18v6.8106h-45.4424v49.9834h55.8311v6.8105h-63.7422Z"/><path d="M788.3154,1587.917h17.9937L844.2876,1694.62c4.8022,13.4141,9.55,26.9385,14.352,40.4072h1.1041c4.8027-13.4687,9.0532-26.9931,13.8554-40.4072l37.8677-106.7031h17.9941v181.8848H917.2075V1650.2354c0-14.7383.8833-33.92,1.6011-49.128h-1.1045L903.5454,1641.68l-39.22,108.2773H853.3408L813.8721,1641.68,799.52,1601.1074h-1.104c.7173,15.208,1.6006,34.39,1.6006,49.128v119.5664H788.3154Z"/><path d="M978.9189,1678.2793c0-57.5732,31.188-93.6748,74.9063-93.6748s74.9062,36.1289,74.9062,93.6748c0,57.5742-31.1879,94.834-74.9062,94.834S978.9189,1735.8535,978.9189,1678.2793Zm136.5108,0c0-50.4531-24.6748-82.1387-61.6045-82.1387s-61.6045,31.6856-61.6045,82.1387,24.6748,83.2988,61.6045,83.2988S1115.43,1728.7334,1115.43,1678.2793Z"/><path d="M1177.416,1700.0293V1587.917h12.6948v110.6768c0,48.4111,22.688,62.9843,48.4117,62.9843,26.22,0,49.46-14.5732,49.46-62.9843V1587.917h12.0322v112.1123c0,56.8008-30.14,73.084-61.4921,73.084S1177.416,1756.83,1177.416,1700.0293Z"/><path d="M1360.4561,1587.917h13.3017l76.5088,128.2324,20.59,36.3213h1.104c-.7172-17.83-1.6005-35.4385-1.6005-53.0469V1587.917h11.977v181.8848h-13.3017l-76.5088-128.26-20.59-36.294h-1.104c.7173,17.4424,1.6006,33.9473,1.6006,51.5557v112.9981h-11.977Z"/><path d="M1582.6328,1598.8447h-57.9053V1587.917h128.5049v10.9277h-57.9053v170.9571h-12.6943Z"/><path d="M1723.9424,1587.917h12.6943l64.0879,181.8848h-13.4678l-36.3222-107.09c-7.3965-21.583-13.8-40.6543-20.2032-62.8174h-1.1044c-6.3477,22.19-12.751,41.2344-20.1485,62.8174l-36.8193,107.09h-12.8047Zm-34.832,108.8271h81.5576v10.625H1689.11Z"/><path d="M1836.8242,1587.917h12.6944v181.8848h-12.6944Z"/><path d="M1910.5137,1587.917h13.3017l76.5088,128.2324,20.59,36.3213h1.1045c-.7178-17.83-1.6006-35.4385-1.6006-53.0469V1587.917h11.9765v181.8848h-13.3017l-76.5088-128.26-20.59-36.294H1920.89c.7178,17.4424,1.6006,33.9473,1.6006,51.5557v112.9981h-11.9765Z"/><path d="M2079.4775,1745.707l8.169-8.7207c13.1924,14.9317,32.1816,24.5918,53.3789,24.5918,27.7666,0,45.2656-14.8769,45.2656-36.5439,0-22.7149-14.8222-29.9463-32.7344-38.0059l-27.5732-12.3652c-15.8418-6.9824-36.9014-18.2988-36.9014-45.2363,0-26.4131,22.6319-44.8223,52.8819-44.8223a69.5609,69.5609,0,0,1,50.6728,21.7764l-7.3408,8.4453a57.9822,57.9822,0,0,0-43.332-18.6856c-24.0127,0-40.1319,12.834-40.1319,32.5137,0,21.2246,18.1612,29.23,31.4649,35.08l27.5176,12.2822c20.3681,9.0811,38.2812,20.3135,38.2812,48.1348,0,27.8759-22.9082,48.9619-58.1807,48.9619C2114.3086,1773.1133,2093.8291,1761.8525,2079.4775,1745.707Z"/><path d="M1368.4263,1306.8c0-35.8784,19.436-58.376,46.68-58.376s46.68,22.5147,46.68,58.376c0,35.8784-19.4355,59.0981-46.68,59.0981S1368.4263,1342.6787,1368.4263,1306.8Zm85.07,0c0-31.4414-15.3765-51.1875-38.39-51.1875s-38.3906,19.7461-38.3906,51.1875,15.377,51.91,38.3906,51.91S1453.4966,1338.2417,1453.4966,1306.8Z"/><path d="M1487.8618,1250.4883h8.29l47.6787,79.9111,12.831,22.6348h.6875c-.4463-11.1109-.997-22.084-.997-33.0576v-69.4883h7.4638v113.3462h-8.289l-47.6787-79.9283-12.8316-22.6176h-.688c.4473,10.87.9976,21.1552.9976,32.1284v70.4175h-7.4639Z"/></g><g id="Layer_3" data-name="Layer 3"><polyline class="cls-2" points="1302.508 1539.219 1229.692 1427.914 1152.715 1555.863 1051.813 1387.345 969.634 1526.736 844.807 1316.61 684.611 1597.472 745.985 1597.472 662.766 1744.144 743.904 1744.144 636.837 1944.813"/><polyline class="cls-2" points="1662.509 1551.02 1736.09 1432.309 1815.558 1558.869 1920.534 1397.972 2006.869 1539.247 2141.277 1335.182 2308.061 1617.734 2247.234 1617.734 2329.645 1761.953 2236.442 1761.953 2351.228 1953.264"/><polyline class="cls-2" points="2474.845 1811.988 2402.245 1700.145 2456.204 1700.145 2401.264 1610.866 2440.507 1610.866 2343.38 1440.158 2272.742 1555.926"/><polyline class="cls-2" points="2110.863 1835.534 2027.472 1835.534 2134.409 2018.015 2145.201 2033.712"/><polyline class="cls-2" points="2035.32 2036.656 2082.412 2012.129 2136.372 2041.561 2189.35 2008.204 2236.442 2036.656 2289.42 2008.204 2333.569 2036.656 2390.472 2007.223"/><polyline class="cls-2" points="571.216 1915.121 621.769 1951.231 677.481 1927.501 717.718 1953.294 765.176 1923.375 807.476 1955.357 861.124 1925.438"/><polyline class="cls-2" points="830.173 2016.228 951.914 1817.109 862.156 1817.109"/><polyline class="cls-2" points="599.072 1990.435 642.403 2017.26 688.83 1988.372 731.13 2017.26 784.778 1987.34 830.173 2023.45 884.854 1991.467 927.153 2024.481"/><line class="cls-2" x1="1115.955" y1="1305.3845" x2="1340.8663" y2="1305.3845"/><line class="cls-2" x1="1628.7114" y1="1306.4162" x2="1862.908" y2="1306.4162"/><polyline class="cls-2" points="527.884 1790.285 592.882 1678.861 549.55 1678.861 603.199 1589.103 557.804 1589.103 651.689 1419.903 719.781 1533.391"/><polyline class="cls-2" points="1633.87 2099.796 1694.74 2064.718 1741.167 2097.732 1793.784 2065.75 1839.179 2103.923 1891.796 2070.908 1937.191 2099.796 1979.49 2075.035 2025.917 2108.049 2079.566 2072.971"/><polyline class="cls-2" points="1884.574 2228.759 1933.064 2196.776 1977.427 2223.6"/><polyline class="cls-2" points="2022.822 2159.635 2067.185 2134.874 2117.739 2165.825 2164.165 2132.81 2216.782 2164.793 2248.765 2142.096"/><polyline class="cls-2" points="2029.012 2293.756 2073.375 2323.675 2127.024 2291.692 2171.387 2318.517"/><polyline class="cls-2" points="2042.424 2371.134 2080.597 2391.768 2127.024 2359.785 2173.451 2393.831 2220.909 2363.912 2268.367 2389.704"/><polyline class="cls-2" points="722.261 2125.771 753.704 2146.21 804.014 2113.194 844.89 2146.21 892.056 2114.766 932.932 2138.349"/><polyline class="cls-2" points="978.525 2204.38 1022.546 2177.653 1071.284 2209.097"/><polyline class="cls-2" points="870.045 2091.183 923.499 2059.74 972.237 2092.756 1028.835 2064.456 1068.139 2089.611 1118.449 2058.168 1162.47 2094.328 1212.78 2062.884 1267.563 2099.556"/><polyline class="cls-2" points="793.885 2299.979 838.761 2266.783 883.636 2304.897 929.742 2268.013"/><polyline class="cls-2" points="701.059 2361.453 746.55 2335.634 792.655 2369.444 838.761 2339.937 883.022 2370.674 919.291 2347.314"/><path class="cls-2" d="M1378.4735,825.2962A161.2462,161.2462,0,1,1,1587.67,828.76"/><polyline class="cls-2" points="921.055 1296.42 1484.624 718.722 2054.473 1312.118"/><polyline class="cls-2" points="530.167 1261.884 712.267 1078.213 808.027 1178.683 1200.485 778.376 1308.803 892.973"/><polyline class="cls-2" points="2467.339 1280.722 2278.959 1092.342 2175.35 1192.811 1767.194 783.085 1658.875 891.404"/><polyline class="cls-2" points="1974.412 1423.576 2180.059 1225.778 2370.009 1422.007 2490.886 1307.409 2696.534 1513.057"/><polyline class="cls-2" points="2501.875 1593.118 2581.936 1668.47 2713.802 1544.453 2883.344 1715.565"/><polyline class="cls-2" points="186.374 1676.319 313.53 1516.196 423.418 1641.783 490.921 1561.722"/><polyline class="cls-2" points="330.798 1480.09 511.329 1285.431 619.647 1396.889 798.608 1208.509 986.988 1407.878"/><path class="cls-2" d="M2889.658,2198.8718a173.5684,173.5684,0,0,1-58.5455-10.271c-22.1652-8.0625-32.3139-17.11-34.9216-19.5151-6.2619-5.7759-16.6628-15.3689-19.5151-29.7861-1.0633-5.3736-1.7461-14.7959,9.2439-38.0032,16.3967-34.6248,30.0212-39.2112,42.1115-69.8435,5.2811-13.38,8.3089-21.0514,8.2171-31.8405-.051-5.9912-1.2371-33.2634-46.22-70.8707-36.15-30.2222-72.5886-43.8694-95.5213-51.3555-79.7846-26.0448-149.5315-32.8636-178.7172-33.8946-54.9915-1.9426-142.2425-7.4494-229.0457-3.0814"/><path class="cls-2" d="M2885.55,2254.3359a227.7034,227.7034,0,0,1-36.9761-3.0813c-17.33-2.88-48.2434-8.3508-79.0877-29.7863-12.7793-8.8811-25.5932-17.7864-35.9487-34.9217-2.2734-3.7619-19.9675-34.05-12.3254-70.8706,4.03-19.4145,13.5779-33.2971,26.7048-52.3828,14.7585-21.4579,19.38-20.7286,25.678-34.9217,2.03-4.5743,13.5552-31.705,3.0813-59.5724-6.1607-16.3916-17.8675-27.5437-32.8677-38.0032-51.5229-35.9264-123.8489-51.0934-154.0666-56.4911"/><path class="cls-2" d="M2750.998,2257.4172a122.0181,122.0181,0,0,1-19.5151,0c-8.9934-.7221-25.104-2.1743-42.1116-11.2981-8.5339-4.5781-22.8535-12.26-31.84-28.7592-9.6756-17.7632-7.5672-35.4595-6.1626-47.2471,1.65-13.85,5.69-23.6509,11.2983-36.9761,8.24-19.5771,12.8491-23.7593,23.6235-44.1658,11.8589-22.46,20.5376-38.8979,24.6507-61.6265,2.541-14.0414,5.7016-31.508-1.0271-50.3284-7.47-20.8942-23.6814-33.8131-40.0574-44.1658-58.0859-36.7209-126.1611-46.1575-134.5515-47.2472-55.4773-7.2049-144.64-13.9255-233.3-14.38"/><path class="cls-2" d="M2690.3984,2297.4746a250.4432,250.4432,0,0,1-30.8134-5.1355,223.86,223.86,0,0,1-57.5181-21.5693c-15.1694-8.3172-22.7544-12.4759-27.7319-20.5423-10.4622-16.9541-5.7-37.35-4.1087-44.1657,2.7705-11.866,7.792-19.8824,13.3526-28.7593a151.02,151.02,0,0,1,26.7048-31.84"/><path class="cls-2" d="M2610.2837,2116.7031c4.1763-4.63,10.2163-11.3537,17.4609-19.5151,21.5362-24.2612,26.8076-30.9155,31.84-38.0032,8.6384-12.1658,13.0339-18.4682,16.4338-28.759a84.34,84.34,0,0,0,4.1084-28.7592,85.3024,85.3024,0,0,0-5.1355-26.7049"/><path class="cls-2" d="M2612.3379,2028.3715c2.0725-2.682,4.9587-6.5345,8.217-11.2983,8.8155-12.8888,13.2232-19.3332,15.4065-26.7048,4.459-15.0541.5667-28.5987-1.0271-33.8946a70.1141,70.1141,0,0,0-8.2168-17.461c-14.4819-22.8077-39.4721-38.7876-50.3169-45.1777"/><path class="cls-2" d="M2643.1514,2329.3149c-4.0567-1.7124-10.0974-4.2326-17.461-7.19-19.9348-8.0051-26.73-10.04-34.9218-13.3525-11.0567-4.47-30.2876-12.2456-48.2742-28.759-9.1821-8.43-20.6109-18.9226-26.7048-36.9761-1.9351-5.7324-8.78-26.0085,0-46.22,3.9851-9.174,10.1889-15.0178,22.5964-26.7048a243.7954,243.7954,0,0,1,30.8132-24.6506"/><path class="cls-2" d="M2525.0334,2311.8542a267.9709,267.9709,0,0,1-33.8945-18.488c-16.365-10.5349-29.88-21.7908-41.0845-35.949-4.934-6.2348-6.9948-9.9675-8.2168-14.38-3.738-13.4959,2.3709-26.1248,5.1355-31.84,3.4942-7.2234,7.4378-11.8313,12.3252-17.461a129.7666,129.7666,0,0,1,22.5965-20.5422"/><path class="cls-2" d="M2498.3286,2088.9709c4.6079-3.7612,11.728-9.5214,20.5422-16.4335,26.0367-20.418,30.4109-22.3072,39.03-31.8406,6.5813-7.2792,15.7388-17.6311,20.5423-33.8947a79.8884,79.8884,0,0,0,3.0813-21.5693,86.8238,86.8238,0,0,0-10.2713-41.0844"/><path class="cls-2" d="M2574.335,2343.6946c-11.7618-.9575-28.4041-2.5266-48.2745-5.1355-33.4243-4.3882-59.0642-7.7547-90.3857-16.4339-39.7578-11.017-66.4888-24.448-93.467-38.0031-39.377-19.7849-48.9478-29.6477-55.4639-39.03-17.0354-24.529-16.5879-50.6657-16.4338-55.4641,1.3486-42.0112,32.217-68.8379,45.1928-80.1147,13.2339-11.501,24.52-17.0545,46.22-27.732,11.8088-5.8105,16.3916-7.227,80.1147-31.84,14.4424-5.5784,28.1082-10.947,44.1658-21.5694,13.6458-9.027,21.2222-16.69,26.7049-23.6236a93.9552,93.9552,0,0,0,13.3522-22.5964c4.3436-10.7531,8.5752-21.23,6.1629-32.8676-4.9258-23.7634-33.8821-34.6535-40.0574-36.9759-4.6985-1.7671-10.2026-3.323-26.7048-5.1356-40.6961-4.47-70.4761-2.4576-103.7383-3.0813-8.8889-.1668-23.1611-.5544-40.97-1.6193"/><path class="cls-2" d="M2586.66,2060.2119a31.1634,31.1634,0,0,1,0,8.2168c-2.264,16.8264-19.293,27.2134-28.7591,32.8677-65.0324,38.8457-97.5488,58.2683-105.7925,61.6267a109.7856,109.7856,0,0,0-25.6777,14.3794c-7.073,5.3393-16.8323,12.8635-23.6235,25.678-8.7622,16.5334-7.5957,32.4609-7.19,38.0029,3.0391,41.4983,75.3772,87.4858,79.98,90.1829"/><path class="cls-2" d="M2449.0273,2109.5132c-15.2377,7.4311-27.7517,14.26-36.976,19.5151a525.1648,525.1648,0,0,0-51.3555,33.8948c-13.3372,9.93-17.7307,14.1658-21.5693,20.5422-7.84,13.0237-8.1443,26.3045-8.2168,32.8675a70.3313,70.3313,0,0,0,7.19,32.8676c9.9,19.8194,49.698,55.9751,55.8361,58.9161"/><path class="cls-2" d="M197.0408,2166.564a139.8953,139.8953,0,0,0,29.1236-11.3257c14.2731-7.4846,24.464-12.8289,31.5507-24.27,9.4541-15.2632,7.54-31.9446,6.4719-41.2585-1.5105-13.1658-5.6247-21.95-12.9439-37.2137-15.445-32.2093-24.3213-35.6383-29.1236-54.2022-4.8384-18.7035-.85-34.6357,1.618-44.4945,13.0139-51.9859,62.5222-80.4749,85.7529-93.8428a273.6877,273.6877,0,0,1,81.708-30.7417c108.5244-22.6358,254.1146-16.99,311.0039-13.3589"/><path class="cls-2" d="M199.4677,2223.1934a114.1586,114.1586,0,0,0,24.27-4.045c41.8594-11.7473,63.9862-44.1381,67.9551-50.1574,6.7593-10.2513,20.9714-35.19,20.2248-67.9551-.6711-29.4507-13.14-52.6043-21.8428-68.7643-12.0563-22.3873-17.268-21.8613-21.8427-37.2135-9.2184-30.9357,4.1363-59.2717,7.2809-65.5282,10.7632-21.4138,26.74-32.5089,42.0675-42.8765,17.5286-11.8563,51.8226-31.201,103.5508-37.2136"/><path class="cls-2" d="M288.4567,2228.0474a62.1585,62.1585,0,0,0,32.36-.8091c25.8551-7.9378,37.2076-31.34,40.45-38.0225,13.1274-27.0605,6.8738-53.9382,3.2359-69.5732-1.0848-4.6626-2.2983-8.784-15.3707-39.6406-23.4-55.2352-24.7943-54.4971-28.3147-67.1462-5.98-21.486-13.7813-49.5173-1.618-76.045,10.635-23.1945,31.3239-33.8792,55.0113-46.1124,7.2778-3.7586,29.6692-14.8316,93.0339-26.6967a980.6167,980.6167,0,0,1,107.5957-13.7528c36.7652-2.7737,91.3853-3.3523,114.19-3.256"/><path class="cls-2" d="M336.1871,2267.6877a228.143,228.143,0,0,0,27.5056-5.6628c27.478-7.4446,50.4082-13.657,65.5283-33.1687,14.4986-18.71,14.6439-40.3933,14.5618-45.3035-.7184-42.9868-40.0314-67.0832-42.8765-68.7641"/><path class="cls-2" d="M403.3333,2086.4739a245.2088,245.2088,0,0,1-33.9776-46.9213c-8.0155-14.4156-16.0133-29.0752-20.2247-50.1575a142.0677,142.0677,0,0,1-1.618-45.3034"/><path class="cls-2" d="M404.1423,1999.103a69.5893,69.5893,0,0,1-18.6068-26.6966c-16.1236-42.2928,30.32-95.0279,32.3734-97.4051"/><path class="cls-2" d="M503.6481,2063.0132c-9.2715-8.4866-22.7325-21.34-38.0226-38.0225-29.81-32.526-34.16-44.2427-35.5955-48.5394-3.0478-9.12-7.7256-28.9685,1.6179-57.4382"/><path class="cls-2" d="M378.2546,2293.5754a138.2441,138.2441,0,0,0,53.3933-16.18c14.6922-8.0281,44.59-24.365,55.0114-59.0564,7.74-25.7649.57-47.7852-1.618-54.2024-10.77-31.5921-35.2413-46.98-42.0675-50.9663"/><path class="cls-2" d="M473.7154,2283.0586c28.12-22.2319,47.4626-35.3352,61.4833-43.6856,3.3826-2.0146,10.0517-5.8942,14.5618-13.7526,8.8755-15.4644,2.2717-33.9324.809-38.0227-8.4721-23.6927-30.6989-33.5569-35.5956-35.5955"/><path class="cls-2" d="M435.6929,2311.3733a380.9989,380.9989,0,0,0,64.7192-2.427c62.4026-7.7048,137.6342-14.7822,178.7868-69.5733,8.2592-10.9963,33.2266-47.9416,25.8877-91.4157-9.2488-54.7879-65.0149-91.5559-101.1238-104.36-10.6805-3.7871-16.9654-4.5289-33.9775-11.3259-23.45-9.3693-47.8209-19.1063-67.9552-39.64-13.1075-13.3678-38.497-39.2615-30.7416-67.1461,8.5726-30.8233,56.2357-40.1255,62.2922-41.2586,7.35-1.3751,12.5671-1.479,21.8428-1.6179,21.1339-.3164,79.4052.4021,114.4692.25"/><path class="cls-2" d="M425.176,2037.9346a173.9232,173.9232,0,0,0,38.8315,46.9214c11.0965,9.333,14.478,9.6779,64.7192,39.6406,27.6975,16.518,39.0914,23.8213,51.7754,37.2136,10.2619,10.835,18.5277,19.5623,21.8427,30.7415,8.0184,27.04-29.7386,83.9414-67.6047,112.16"/><path class="cls-2" d="M548.1425,2085.665c16.7967,5.0877,67.0891,22.1487,92.2249,60.6744a83.743,83.743,0,0,1,11.3259,25.0786c7.5275,30.0117-5.6012,55.3452-8.8989,61.4831-11.105,20.669-37.49,54.3821-45.6582,59.1057"/><line class="cls-2" x1="1063.9924" y1="676.9183" x2="995.7361" y2="676.9183"/><line class="cls-2" x1="1127.1752" y1="676.9183" x2="1087.6586" y2="676.9183"/><line class="cls-2" x1="1150.543" y1="676.9183" x2="1147.1621" y2="676.9183"/><line class="cls-2" x1="1168.7998" y1="676.9183" x2="1150.543" y2="676.9183"/><line class="cls-2" x1="1243.4687" y1="676.9183" x2="1185.7042" y2="676.9183"/><line class="cls-2" x1="1293.5156" y1="676.9183" x2="1259.4075" y2="676.9183"/><line class="cls-2" x1="1082.3692" y1="596.2688" x2="1010.7502" y2="579.3267"/><line class="cls-2" x1="1151.9838" y1="612.7368" x2="1100.3026" y2="600.5112"/><line class="cls-2" x1="1243.4687" y1="634.3784" x2="1200.6695" y2="624.2539"/><line class="cls-2" x1="1057.3935" y1="505.1871" x2="986.9876" y2="476.7304"/><line class="cls-2" x1="1122.7303" y1="531.5949" x2="1085.1628" y2="516.4108"/><line class="cls-2" x1="1200.6695" y1="563.0963" x2="1151.9838" y2="543.4185"/><line class="cls-2" x1="1287.2598" y1="598.0943" x2="1241.9902" y2="579.7973"/><line class="cls-2" x1="1097.6628" y1="420.1825" x2="995.7361" y2="341.6036"/><line class="cls-2" x1="1168.3362" y1="474.6672" x2="1122.7303" y2="439.5079"/><line class="cls-2" x1="1249.7245" y1="537.4124" x2="1206.6185" y2="504.1804"/><line class="cls-2" x1="1090.41" y1="290.4812" x2="1068.3042" y2="266.5331"/><line class="cls-2" x1="1131.7363" y1="335.2516" x2="1105.7909" y2="307.1439"/><line class="cls-2" x1="1197.2636" y1="406.2399" x2="1154.441" y2="359.8484"/><line class="cls-2" x1="1236.9547" y1="449.2388" x2="1208.175" y2="418.0606"/><line class="cls-2" x1="1286.0804" y1="502.4586" x2="1256.052" y2="469.9276"/><line class="cls-2" x1="1340.8663" y1="561.8103" x2="1317.2287" y2="536.2028"/><line class="cls-2" x1="1261.0109" y1="363.1332" x2="1228.4106" y2="311.5754"/><line class="cls-2" x1="1298.6891" y1="422.7217" x2="1274.7322" y2="384.8336"/><line class="cls-2" x1="1337.4062" y1="483.9532" x2="1312.9084" y2="445.2097"/><line class="cls-2" x1="1381.0978" y1="553.0521" x2="1360.7024" y2="520.7964"/><line class="cls-2" x1="1378.6823" y1="457.0876" x2="1406.1213" y2="523.0239"/><line class="cls-2" x1="1356.4976" y1="403.7776" x2="1369.2928" y2="434.5245"/><line class="cls-2" x1="1344.0819" y1="373.9424" x2="1351.202" y2="391.0522"/><line class="cls-2" x1="1324.364" y1="326.5601" x2="1336.7784" y2="356.392"/><line class="cls-2" x1="1302.5081" y1="274.0402" x2="1316.4722" y2="307.5959"/><line class="cls-2" x1="1399.1557" y1="276.5913" x2="1393.6096" y2="245.2632"/><line class="cls-2" x1="1412.8157" y1="353.7515" x2="1406.1488" y2="316.093"/><line class="cls-2" x1="1423.1658" y1="412.2156" x2="1418.3182" y2="384.8336"/><line class="cls-2" x1="1439.903" y1="506.7586" x2="1430.1954" y2="451.9236"/><line class="cls-2" x1="1485.5902" y1="458.7507" x2="1485.1015" y2="506.7586"/><line class="cls-2" x1="1486.3428" y1="384.8336" x2="1485.9034" y2="427.9902"/><line class="cls-2" x1="1487.0427" y1="316.093" x2="1486.743" y2="345.5306"/><line class="cls-2" x1="1487.7638" y1="245.2632" x2="1487.3193" y2="288.9205"/><line class="cls-2" x1="1545.0545" y1="453.0995" x2="1534.4082" y2="506.7586"/><line class="cls-2" x1="1558.2256" y1="386.7148" x2="1551.5069" y2="420.5782"/><line class="cls-2" x1="1574.0801" y1="306.8053" x2="1563.7506" y2="358.8676"/><line class="cls-2" x1="1586.2904" y1="245.2632" x2="1579.0915" y2="281.5472"/><line class="cls-2" x1="1598.3136" y1="460.269" x2="1570.0252" y2="523.0239"/><line class="cls-2" x1="1623.8378" y1="403.6465" x2="1606.7708" y2="441.5077"/><line class="cls-2" x1="1637.4552" y1="373.4377" x2="1630.5872" y2="388.6736"/><line class="cls-2" x1="1657.9924" y1="327.8782" x2="1647.3364" y2="351.5173"/><line class="cls-2" x1="1678.8773" y1="281.5472" x2="1665.8685" y2="310.4059"/><line class="cls-2" x1="1613.6476" y1="523.9802" x2="1593.7975" y2="553.0521"/><line class="cls-2" x1="1662.8475" y1="451.9236" x2="1637.4552" y2="489.1124"/><line class="cls-2" x1="1701.6184" y1="395.1411" x2="1677.2036" y2="430.8983"/><line class="cls-2" x1="1752.6966" y1="320.3336" x2="1711.8881" y2="380.1004"/><line class="cls-2" x1="1658.0205" y1="537.7727" x2="1628.7114" y2="566.815"/><line class="cls-2" x1="1722.2926" y1="474.0859" x2="1687.3671" y2="508.6933"/><line class="cls-2" x1="1772.8008" y1="424.0376" x2="1740.4697" y2="456.0743"/><line class="cls-2" x1="1830.3201" y1="367.0419" x2="1787.9875" y2="408.9891"/><line class="cls-2" x1="1880.826" y1="316.996" x2="1857.9156" y2="339.6978"/><line class="cls-2" x1="1916.6005" y1="281.5472" x2="1898.7132" y2="299.2716"/><line class="cls-2" x1="1767.9197" y1="514.9874" x2="1728.9243" y2="543.0851"/><line class="cls-2" x1="1859.3436" y1="449.1128" x2="1814.0708" y2="481.7337"/><line class="cls-2" x1="1922.1946" y1="403.8262" x2="1886.7931" y2="429.3344"/><line class="cls-2" x1="1992.9221" y1="352.8642" x2="1944.1373" y2="388.0155"/><line class="cls-2" x1="1728.9243" y1="588.5086" x2="1678.8773" y2="606.8526"/><line class="cls-2" x1="1823.4619" y1="553.8574" x2="1779.065" y2="570.1304"/><line class="cls-2" x1="1896.7834" y1="526.9826" x2="1859.3436" y2="540.7055"/><line class="cls-2" x1="1992.9221" y1="491.7445" x2="1926.0193" y2="516.2666"/><line class="cls-2" x1="1769.3481" y1="629.626" x2="1723.9196" y2="639.3831"/><line class="cls-2" x1="1874.1991" y1="607.1062" x2="1826.9104" y2="617.2628"/><line class="cls-2" x1="1974.4115" y1="585.5826" x2="1896.7834" y2="602.2555"/><line class="cls-2" x1="1701.0857" y1="685.9226" x2="1673.2471" y2="685.9226"/><line class="cls-2" x1="1780.8867" y1="685.9226" x2="1728.9243" y2="685.9226"/><line class="cls-2" x1="1820.1781" y1="685.9226" x2="1808.0288" y2="685.9226"/><line class="cls-2" x1="1889.1967" y1="685.9226" x2="1841.6333" y2="685.9226"/><line class="cls-2" x1="1992.9221" y1="685.9226" x2="1915.5633" y2="685.9226"/><line class="cls-2" x1="2719.0213" y1="1600.9792" x2="2769.8093" y2="1600.9792"/><line class="cls-2" x1="2608.5362" y1="1486.561" x2="2667.3554" y2="1486.561"/><line class="cls-2" x1="2569.9201" y1="1450.0902" x2="2630.8846" y2="1450.0902"/><line class="cls-2" x1="2529.5162" y1="1410.7589" x2="2593.6987" y2="1410.7589"/><line class="cls-2" x1="2488.3971" y1="1369.4172" x2="2551.507" y2="1369.4172"/><line class="cls-2" x1="2180.1831" y1="1288.1169" x2="2240.4039" y2="1288.1169"/><line class="cls-2" x1="2219.5144" y1="1329.236" x2="2280.2071" y2="1329.236"/><line class="cls-2" x1="2259.5608" y1="1369.4172" x2="2319.1026" y2="1369.4172"/><line class="cls-2" x1="2296.7467" y1="1405.7531" x2="2352.5255" y2="1405.7531"/><line class="cls-2" x1="2270.2875" y1="1150.1" x2="2335.4728" y2="1150.1"/><line class="cls-2" x1="2312.1216" y1="1193.3643" x2="2374.656" y2="1193.3643"/><line class="cls-2" x1="2351.2285" y1="1230.5503" x2="2417.1671" y2="1230.5503"/><line class="cls-2" x1="2390.7841" y1="1271.6693" x2="2458.2862" y2="1271.6693"/><line class="cls-2" x1="2106.1689" y1="1185.4981" x2="2167.1517" y2="1185.4981"/><line class="cls-2" x1="2066.8376" y1="1145.0942" x2="2127.8158" y2="1145.0942"/><line class="cls-2" x1="2026.0761" y1="1105.7629" x2="2088.6352" y2="1105.7629"/><line class="cls-2" x1="1984.5995" y1="1064.2863" x2="2047.3176" y2="1064.2863"/><line class="cls-2" x1="1950.6316" y1="1031.9034" x2="2015.0588" y2="1031.9034"/><line class="cls-2" x1="1918.094" y1="990.9872" x2="1974.4115" y2="990.9872"/><line class="cls-2" x1="1785.4404" y1="1086.8124" x2="1838.1077" y2="1086.8124"/><line class="cls-2" x1="1820.4809" y1="1126.1437" x2="1875.8782" y2="1126.1437"/><line class="cls-2" x1="1907.7248" y1="1218.3933" x2="1964.4672" y2="1218.3933"/><line class="cls-2" x1="1950.6316" y1="1260.585" x2="2004.9846" y2="1260.585"/><line class="cls-2" x1="1984.5995" y1="1301.7041" x2="2044.4719" y2="1301.7041"/><line class="cls-2" x1="276.2247" y1="1611.2121" x2="238.0763" y2="1611.2121"/><line class="cls-2" x1="310.7438" y1="1571.8987" x2="269.2958" y2="1571.8987"/><line class="cls-2" x1="409.1871" y1="1461.3098" x2="348.2155" y2="1461.3098"/><line class="cls-2" x1="441.7885" y1="1422.9553" x2="383.7862" y2="1422.9553"/><line class="cls-2" x1="477.5861" y1="1383.6419" x2="420.2462" y2="1383.6419"/><line class="cls-2" x1="514.6621" y1="1347.2051" x2="454.0384" y2="1347.2051"/><line class="cls-2" x1="604.4757" y1="1250.3598" x2="541.5921" y2="1250.3598"/><line class="cls-2" x1="641.5517" y1="1210.4072" x2="583.0847" y2="1210.4072"/><line class="cls-2" x1="681.824" y1="1169.1761" x2="622.082" y2="1169.1761"/><line class="cls-2" x1="716.6627" y1="1131.1411" x2="659.7918" y2="1131.1411"/><line class="cls-2" x1="690.4538" y1="1383.6419" x2="632.5996" y2="1383.6419"/><line class="cls-2" x1="724.014" y1="1347.2051" x2="669.6069" y2="1347.2051"/><line class="cls-2" x1="762.3685" y1="1308.5309" x2="703.5875" y2="1308.5309"/><line class="cls-2" x1="799.7642" y1="1270.1764" x2="740.0243" y2="1270.1764"/><line class="cls-2" x1="874.5555" y1="1170.4546" x2="817.347" y2="1170.4546"/><line class="cls-2" x1="907.7961" y1="1131.1411" x2="854.6362" y2="1131.1411"/><line class="cls-2" x1="951.5842" y1="1091.5081" x2="893.4921" y2="1091.5081"/><line class="cls-2" x1="989.2995" y1="1052.834" x2="931.4079" y2="1052.834"/><line class="cls-2" x1="1022.2205" y1="1020.1297" x2="963.4709" y2="1020.1297"/><line class="cls-2" x1="1056.42" y1="982.1977" x2="1000.6592" y2="982.1977"/><line class="cls-2" x1="1183.6292" y1="1084.1568" x2="1128.1267" y2="1084.1568"/><line class="cls-2" x1="1145.9139" y1="1123.4702" x2="1089.7747" y2="1123.4702"/><line class="cls-2" x1="1060.8947" y1="1210.7268" x2="1004.6521" y2="1210.7268"/><line class="cls-2" x1="1018.0654" y1="1250.9991" x2="965.3648" y2="1250.9991"/><line class="cls-2" x1="983.866" y1="1291.2713" x2="926.0775" y2="1291.2713"/><polyline class="cls-2" points="1235.189 974.41 1183.629 941.825 1108.159 973.657 1044.144 937.843"/><polyline class="cls-2" points="1192.252 1018.423 1265.327 1058.408 1340.529 1023.791 1410.956 1058.408 1483.372 1023.791 1557.778 1058.408 1626.614 1023.791 1700.622 1058.408 1772.393 1018.382"/><polyline class="cls-2" points="1733.116 977.482 1785.44 947.793 1863.758 984.4 1927.367 943.875"/></g></svg>